<svg xmlns="http://www.w3.org/2000/svg" viewBox="0 0 120 120"><rect width="120" height="120" rx="28" fill="#17171a"/><g transform="translate(60 60) scale(.64) translate(-66 -50)"><path d="M36 86V18l36 44 36-44v68" fill="none" stroke="#f1b52e" stroke-width="18" stroke-miterlimit="10"/><path d="M35 87V19l36 44 36-44v68" fill="none" stroke="#f1b52e" stroke-width="18" stroke-miterlimit="10"/><path d="M34 88V20l36 44 36-44v68" fill="none" stroke="#f1b52e" stroke-width="18" stroke-miterlimit="10"/><path d="M33 89V21l36 44 36-44v68" fill="none" stroke="#f1b52e" stroke-width="18" stroke-miterlimit="10"/><path d="M32 90V22l36 44 36-44v68" fill="none" stroke="#f1b52e" stroke-width="18" stroke-miterlimit="10"/><path d="M31 91V23l36 44 36-44v68" fill="none" stroke="#f1b52e" stroke-width="18" stroke-miterlimit="10"/><path d="M30 92V24l36 44 36-44v68" fill="none" stroke="#f1b52e" stroke-width="18" stroke-miterlimit="10"/><path d="M29 93V25l36 44 36-44v68" fill="none" stroke="#f1b52e" stroke-width="18" stroke-miterlimit="10"/><path d="M28 94V26l36 44 36-44v68" fill="none" stroke="#f1b52e" stroke-width="18" stroke-miterlimit="10"/><path d="M27 95V27l36 44 36-44v68" fill="none" stroke="#f1b52e" stroke-width="18" stroke-miterlimit="10"/><path d="M26 96V28l36 44 36-44v68" fill="none" stroke="#f1b52e" stroke-width="18" stroke-miterlimit="10"/><path d="M25 97V29l36 44 36-44v68" fill="none" stroke="#f1b52e" stroke-width="18" stroke-miterlimit="10"/><path d="M24 98V30l36 44 36-44v68" fill="none" stroke="#f4f1ea" stroke-width="18" stroke-miterlimit="10"/></g></svg>
